<svg xmlns="http://www.w3.org/2000/svg" width="101.919" height="101.917" viewBox="0 0 101.919 101.917">
    <g id="noun-empty-3628653" transform="translate(-84.427 -33.378)">
        <path id="Path_55446" data-name="Path 55446" d="M105.545,33.388a2.315,2.315,0,0,0-1.374,3.979L201.4,134.593a2.315,2.315,0,1,0,3.255-3.292L192.03,118.678a50.9,50.9,0,0,0-71.908-71.907l-12.7-12.7a2.317,2.317,0,0,0-1.881-.687Zm48.868,4.666a46.274,46.274,0,0,1,34.326,77.333l-65.36-65.36a46.071,46.071,0,0,1,31.035-11.973ZM113.141,56.139A2.315,2.315,0,0,0,111.3,57.26,50.917,50.917,0,0,0,181.5,127.467a2.324,2.324,0,0,0-2.459-3.943A46.29,46.29,0,0,1,115.2,59.718a2.315,2.315,0,0,0-2.062-3.581Z" transform="translate(-19.027 0)" fill="#bcbcbc" />
    </g>
</svg>
  